<?xml version="1.0" standalone="no"?>
<!DOCTYPE svg PUBLIC "-//W3C//DTD SVG 20010904//EN"
 "http://www.w3.org/TR/2001/REC-SVG-20010904/DTD/svg10.dtd">
<svg version="1.0" xmlns="http://www.w3.org/2000/svg"
 width="300.000000pt" height="300.000000pt" viewBox="0 0 300.000000 300.000000"
 preserveAspectRatio="xMidYMid meet">

<g transform="translate(0.000000,300.000000) scale(0.100000,-0.100000)"
fill="#000000" stroke="none">
<path d="M1352 2989 c-182 -16 -402 -84 -567 -174 -260 -142 -493 -383 -627
-648 -52 -104 -113 -288 -135 -407 -26 -143 -23 -411 6 -550 96 -455 378 -831
781 -1039 133 -69 253 -111 400 -142 138 -29 406 -32 550 -6 303 56 571 197
791 416 165 166 266 317 344 519 214 556 83 1175 -340 1597 -256 257 -568 403
-930 435 -114 11 -144 10 -273 -1z m424 -58 c292 -60 546 -196 753 -404 369
-371 510 -889 381 -1393 -138 -535 -572 -949 -1118 -1064 -124 -26 -338 -36
-462 -21 -660 81 -1179 587 -1276 1245 -20 133 -15 358 11 481 130 629 632
1095 1266 1175 112 14 329 4 445 -19z"/>
<path d="M1595 2856 c-39 -17 -64 -46 -81 -93 -43 -123 22 -233 138 -233 58 0
98 20 123 63 61 103 22 240 -74 267 -47 13 -70 12 -106 -4z m117 -20 c87 -66
41 -296 -59 -296 -36 0 -78 25 -91 55 -16 36 -15 138 2 179 22 53 51 76 94 76
20 0 45 -7 54 -14z"/>
<path d="M1203 2839 c-44 -13 -91 -63 -99 -104 -22 -120 51 -225 156 -225 47
0 130 32 130 50 0 13 1 13 -45 -10 -111 -57 -202 22 -193 167 5 83 33 113 104
113 39 0 46 -3 55 -27 13 -34 34 -16 25 21 -6 24 -11 26 -54 25 -26 0 -61 -5
-79 -10z"/>
<path d="M1958 2774 c4 -24 -13 -249 -24 -306 -4 -18 -1 -28 6 -28 6 0 65 47
131 104 66 58 130 106 142 108 19 3 16 7 -20 26 -43 22 -58 20 -27 -3 15 -10
5 -22 -75 -91 -100 -86 -116 -96 -108 -68 3 11 8 55 12 99 9 121 14 138 36
132 35 -9 20 9 -26 31 -25 12 -47 22 -49 22 -2 0 -1 -12 2 -26z"/>
<path d="M808 2689 c-21 -10 -42 -28 -48 -38 -16 -30 -12 -76 9 -102 16 -19
30 -23 105 -28 94 -7 116 -19 116 -68 0 -48 -75 -84 -108 -51 -6 6 -14 9 -18
6 -9 -10 15 -48 32 -48 25 0 92 38 108 62 25 35 20 90 -9 118 -22 21 -36 24
-106 25 -67 1 -84 4 -95 20 -26 36 -17 73 24 94 20 11 27 10 42 -4 27 -24 44
-15 25 13 -19 27 -29 27 -77 1z"/>
<path d="M2344 2560 c5 -21 -8 -40 -87 -124 -86 -92 -94 -98 -115 -87 -43 23
-21 -5 62 -81 79 -73 85 -76 100 -59 23 25 20 32 -10 25 -20 -5 -32 0 -60 27
-19 18 -34 38 -34 44 0 6 20 31 45 55 l45 44 30 -29 c17 -16 28 -35 26 -42 -8
-19 8 -16 27 5 20 22 22 33 4 26 -7 -2 -26 9 -42 26 l-29 30 44 45 44 45 38
-37 c29 -29 35 -40 27 -54 -13 -26 5 -32 26 -8 16 17 17 21 4 32 -8 8 -45 42
-82 78 -56 52 -67 59 -63 39z"/>
<path d="M530 2464 c-40 -40 -42 -45 -20 -39 22 5 38 -7 119 -89 86 -86 93
-96 87 -123 -7 -27 -6 -26 38 17 48 46 60 69 26 48 -19 -12 -29 -4 -116 84
-84 85 -95 101 -90 123 4 14 5 25 3 25 -1 0 -23 -21 -47 -46z"/>
<path d="M1341 2429 c-29 -5 -95 -23 -145 -40 -399 -133 -658 -519 -633 -943
24 -398 299 -740 682 -847 362 -101 754 26 987 319 150 189 227 456 199 683
-29 225 -105 389 -256 548 -121 127 -273 218 -440 262 -92 24 -305 34 -394 18z
m444 -443 c169 -45 268 -163 295 -351 36 -256 -70 -477 -267 -557 -55 -22 -72
-23 -350 -26 -284 -3 -293 -2 -293 16 0 16 10 21 50 26 34 5 53 13 60 26 14
26 14 784 0 810 -7 13 -26 21 -60 26 -40 5 -50 10 -50 25 0 17 13 19 198 22
246 5 353 0 417 -17z m-711 -247 c33 -39 33 -79 0 -118 -21 -25 -33 -31 -65
-31 -55 0 -89 34 -89 90 0 85 100 124 154 59z m-3 -308 c52 -52 34 -128 -35
-151 -92 -30 -156 82 -87 151 20 20 39 29 61 29 22 0 41 -9 61 -29z"/>
<path d="M1430 1547 l0 -417 23 -15 c34 -22 135 -30 211 -15 178 33 264 155
273 390 11 255 -61 394 -230 445 -29 9 -103 19 -164 22 l-113 6 0 -416z"/>
<path d="M2628 2245 c-3 -26 -16 -36 -121 -93 -116 -64 -118 -64 -139 -46 -23
21 -23 19 12 -48 24 -48 42 -64 33 -30 -3 14 8 25 46 46 83 45 91 23 31 -83
l-40 -70 17 -36 c16 -34 38 -50 26 -19 -3 9 11 50 32 94 l38 77 29 -14 c52
-27 128 13 128 66 0 14 -20 62 -44 106 -40 72 -45 77 -48 50z m48 -82 c35 -47
-5 -113 -68 -113 -27 0 -78 37 -78 57 0 8 108 71 124 72 5 1 15 -7 22 -16z"/>
<path d="M365 2222 c-27 -17 -101 -132 -121 -187 -7 -19 -6 -19 12 -3 18 16
25 13 136 -50 96 -55 118 -72 120 -92 2 -21 11 -10 52 60 55 94 62 140 32 198
-40 77 -162 116 -231 74z m142 -52 c83 -48 105 -115 60 -181 -13 -19 -30 -33
-37 -31 -6 1 -63 32 -126 69 -127 73 -126 72 -61 141 41 43 91 44 164 2z"/>
<path d="M243 1576 c-39 -33 -50 -74 -29 -115 46 -87 176 -59 176 38 0 83 -86
128 -147 77z"/>
<path d="M2643 1576 c-39 -33 -50 -74 -29 -115 46 -88 176 -58 176 40 0 49
-33 88 -81 95 -28 5 -41 1 -66 -20z"/>
<path d="M514 1109 c1 -18 -23 -36 -119 -91 -109 -63 -121 -67 -132 -52 -7 10
-15 15 -18 12 -3 -2 19 -44 47 -92 77 -128 133 -152 236 -100 110 55 123 122
47 258 -27 47 -52 86 -55 86 -4 0 -6 -10 -6 -21z m60 -91 c29 -47 27 -110 -4
-143 -35 -38 -113 -75 -156 -75 -29 0 -44 7 -69 34 -36 39 -49 72 -32 83 54
35 224 132 232 133 6 0 19 -14 29 -32z"/>
<path d="M2478 1110 c-15 -11 -43 -51 -63 -88 -36 -67 -46 -102 -20 -68 16 21
8 24 183 -71 78 -43 83 -47 77 -72 -8 -33 3 -21 39 42 25 44 25 62 -1 36 -16
-16 -117 37 -109 57 3 9 6 18 6 20 0 2 24 4 53 4 97 0 123 9 141 46 8 19 11
34 6 34 -6 0 -10 -4 -10 -10 0 -9 -24 -14 -117 -25 -51 -6 -53 -5 -53 19 0 31
-46 83 -80 91 -18 4 -34 0 -52 -15z m60 -40 c18 -11 36 -30 41 -43 9 -24 -5
-77 -21 -77 -15 0 -128 63 -128 72 0 12 52 68 63 68 7 0 27 -9 45 -20z"/>
<path d="M2248 795 c-38 -41 -68 -79 -68 -86 0 -8 4 -8 15 1 19 16 32 7 144
-98 76 -72 83 -80 72 -100 -6 -12 -10 -22 -7 -22 6 0 108 107 136 143 21 27
21 29 5 47 -22 24 -39 16 -22 -10 10 -18 7 -25 -30 -61 l-41 -42 -51 48 -52
48 28 29 c18 18 33 26 45 22 25 -8 23 8 -5 34 -24 23 -40 21 -30 -4 6 -16 -33
-64 -52 -64 -6 0 -30 19 -53 43 l-42 43 37 37 c28 26 42 34 53 27 23 -14 33 0
14 21 -9 10 -20 19 -23 18 -3 -1 -36 -34 -73 -74z"/>
<path d="M742 771 c13 -21 4 -34 -120 -164 -47 -50 -59 -57 -81 -52 -22 5 -18
-1 24 -39 48 -42 72 -54 45 -21 -10 12 -6 22 25 57 69 78 157 168 164 168 4 0
12 -5 19 -12 8 -8 12 -8 12 -1 0 10 -82 83 -94 83 -4 0 -1 -9 6 -19z"/>
<path d="M2078 644 c-32 -17 -37 -28 -9 -19 13 4 21 0 24 -12 9 -30 30 -224
25 -228 -6 -6 -188 143 -188 153 0 5 5 13 12 20 18 18 4 15 -47 -10 -47 -23
-58 -38 -27 -38 10 0 74 -47 142 -104 69 -57 128 -101 131 -98 4 4 -2 75 -12
157 -11 83 -18 160 -16 173 5 26 1 26 -35 6z"/>
<path d="M914 599 c-22 -11 -44 -48 -44 -73 0 -7 16 -43 35 -79 42 -78 43 -90
10 -122 -31 -32 -46 -31 -85 1 -24 21 -30 32 -26 50 9 35 -10 38 -24 4 -7 -17
-11 -32 -9 -34 78 -60 111 -71 159 -55 22 8 37 23 47 47 14 34 14 38 -21 104
-20 38 -36 79 -36 92 0 27 29 56 57 56 28 0 65 -41 53 -60 -9 -15 -5 -30 9
-30 4 0 13 11 19 25 10 22 8 27 -22 50 -39 30 -91 40 -122 24z"/>
<path d="M1263 489 c-75 -15 -112 -65 -120 -159 -8 -86 32 -147 112 -169 54
-15 87 -14 110 3 18 13 15 14 -26 9 -94 -11 -153 44 -151 140 2 90 58 167 122
167 39 0 80 -28 80 -56 0 -34 24 -26 28 9 3 22 -2 29 -25 38 -46 19 -96 26
-130 18z"/>
<path d="M1627 476 c-51 -19 -63 -31 -83 -82 -32 -83 1 -195 66 -229 16 -8 51
-15 77 -15 93 0 147 60 147 160 -1 130 -96 207 -207 166z m106 -27 c30 -23 57
-101 57 -161 0 -100 -86 -160 -153 -108 -39 31 -60 97 -55 176 4 58 8 70 32
90 34 30 84 31 119 3z"/>
</g>
</svg>
