<?xml version="1.0" standalone="no"?>
<!DOCTYPE svg PUBLIC "-//W3C//DTD SVG 20010904//EN"
 "http://www.w3.org/TR/2001/REC-SVG-20010904/DTD/svg10.dtd">
<svg version="1.0" xmlns="http://www.w3.org/2000/svg"
 width="1200.000000pt" height="1200.000000pt" viewBox="0 0 1200.000000 1200.000000"
 preserveAspectRatio="xMidYMid meet">

<g transform="translate(0.000000,1200.000000) scale(0.100000,-0.100000)"
fill="#000000" stroke="none">
<path d="M1732 9273 c-67 -20 -152 -95 -190 -167 l-27 -51 -3 -2407 c-2 -2402
-2 -2407 18 -2461 29 -77 88 -140 168 -179 l67 -33 1492 -3 1493 -2 0 -230 0
-230 -138 0 -137 0 -145 -91 c-80 -51 -161 -102 -180 -114 -19 -13 -118 -75
-220 -138 -102 -63 -297 -185 -435 -272 -137 -87 -271 -171 -297 -187 -27 -16
-48 -32 -48 -34 0 -2 1103 -4 2450 -4 1348 0 2450 3 2449 8 0 4 -298 193 -662
419 l-662 413 -137 0 -138 0 0 230 0 230 1125 0 c930 0 1125 2 1125 13 0 8 25
37 55 66 30 29 55 56 55 59 0 4 -72 79 -160 167 l-160 159 -73 -36 c-154 -78
-333 -135 -491 -157 -102 -14 -340 -15 -435 -1 -289 41 -559 161 -781 346
-338 281 -533 673 -556 1114 -14 263 58 566 191 802 206 366 543 631 945 742
128 35 200 45 360 52 683 31 1312 -402 1529 -1051 55 -166 75 -291 76 -475 0
-262 -48 -468 -166 -701 l-39 -78 161 -158 c88 -87 162 -160 165 -162 2 -3 31
22 64 54 l60 59 95 -94 95 -95 -2 2230 -3 2230 -23 48 c-31 61 -98 128 -159
159 l-48 23 -3835 2 c-3464 1 -3840 0 -3888 -14z m3581 -477 c26 -8 68 -30 95
-50 93 -68 132 -159 132 -311 0 -179 -52 -274 -190 -346 -36 -18 -65 -24 -145
-27 -124 -5 -194 17 -267 86 -73 68 -100 133 -106 251 -5 118 8 189 51 259 38
64 95 111 162 134 62 21 203 24 268 4z m1500 -2 c56 -19 121 -86 136 -140 18
-64 18 -64 -61 -64 l-73 1 -18 38 c-27 60 -97 83 -179 61 -50 -14 -70 -36 -66
-73 4 -42 38 -63 138 -87 176 -42 256 -93 279 -177 33 -117 -20 -225 -132
-273 -39 -17 -70 -22 -148 -22 -92 -1 -104 2 -165 32 -50 24 -72 43 -94 76
-26 41 -57 130 -49 138 2 2 35 5 72 7 l69 4 13 -38 c26 -75 76 -102 176 -95
48 4 65 10 89 33 26 25 30 36 28 70 -3 34 -8 42 -42 61 -21 12 -79 31 -127 43
-173 40 -239 96 -247 211 -3 47 0 66 19 99 24 43 78 86 125 101 50 15 206 11
257 -6z m-2123 -282 l0 -288 -25 -51 c-17 -33 -41 -61 -68 -79 -39 -27 -48
-29 -143 -29 -92 0 -104 2 -141 27 -45 29 -78 88 -89 155 -7 47 -9 45 87 58
l46 6 7 -41 c17 -109 147 -125 176 -22 5 21 10 148 10 295 l0 257 70 0 70 0 0
-288z m1477 255 c78 -54 104 -147 63 -227 -11 -22 -31 -47 -45 -56 -32 -21
-31 -29 5 -44 133 -55 125 -269 -13 -343 -39 -21 -56 -22 -274 -25 l-233 -3 0
366 0 367 228 -4 229 -3 40 -28z"/>
<path d="M5090 8668 c-70 -36 -103 -98 -108 -204 -6 -107 9 -161 60 -219 89
-101 259 -80 322 40 17 32 22 62 24 145 3 94 1 110 -20 149 -13 25 -40 58 -60
74 -31 25 -49 30 -105 34 -57 4 -75 1 -113 -19z"/>
<path d="M5810 8594 l0 -86 126 3 c125 4 126 4 151 33 20 24 24 36 19 65 -10
62 -31 71 -172 71 l-124 0 0 -86z"/>
<path d="M5810 8291 l0 -101 130 0 c129 0 130 0 162 29 28 25 33 36 32 71 -1
31 -8 49 -28 69 -26 25 -31 26 -161 29 l-135 4 0 -101z"/>
<path d="M7496 7149 c-183 -24 -452 -130 -601 -237 -200 -144 -353 -321 -455
-527 -110 -224 -144 -369 -145 -625 0 -148 4 -191 24 -280 103 -459 402 -821
828 -1004 122 -52 291 -94 428 -106 309 -28 577 33 878 201 l58 33 250 -250
249 -249 -61 -61 -60 -61 495 -489 c272 -269 499 -490 504 -492 4 -1 145 133
312 298 l305 300 -500 494 -500 494 -61 -54 c-34 -30 -64 -54 -67 -54 -2 0
-116 110 -253 244 l-249 244 18 29 c95 153 154 292 193 458 26 110 28 136 28
310 0 171 -3 202 -27 304 -63 265 -179 476 -369 670 -217 221 -510 369 -811
410 -91 13 -311 12 -411 0z m439 -304 c175 -42 316 -105 442 -199 205 -153
351 -372 414 -621 29 -114 36 -321 15 -448 -102 -618 -722 -1031 -1341 -892
-217 49 -399 148 -553 303 -164 164 -268 364 -308 593 -19 112 -14 312 11 427
70 319 314 616 621 758 74 35 226 80 319 95 76 12 301 3 380 -16z"/>
</g>
</svg>
