<?xml version="1.0" standalone="no"?>
<!DOCTYPE svg PUBLIC "-//W3C//DTD SVG 20010904//EN"
 "http://www.w3.org/TR/2001/REC-SVG-20010904/DTD/svg10.dtd">
<svg version="1.0" xmlns="http://www.w3.org/2000/svg"
 width="3840.000000pt" height="2160.000000pt" viewBox="0 0 3840.000000 2160.000000"
 preserveAspectRatio="xMidYMid meet">

<g transform="translate(0.000000,2160.000000) scale(0.100000,-0.100000)"
fill="#000000" stroke="none">
<path d="M29285 15525 c-270 -51 -483 -240 -561 -500 -18 -58 -19 -227 -22
-4130 -2 -2930 0 -4101 8 -4180 29 -291 162 -479 396 -562 l79 -28 4140 0
4140 0 90 28 c277 87 470 261 551 497 19 54 19 163 19 4195 l0 4140 -27 80
c-85 248 -272 412 -526 461 -106 20 -8179 19 -8287 -1z m1660 -1190 c89 -24
231 -98 305 -158 473 -385 400 -1123 -140 -1401 -113 -59 -211 -86 -340 -93
-252 -14 -465 69 -645 251 -174 176 -257 394 -242 636 13 208 83 369 226 522
126 134 261 212 441 254 75 18 315 11 395 -11z m4351 -2335 c897 -71 1332
-499 1454 -1430 32 -251 41 -694 38 -1950 l-3 -1155 -675 0 -675 0 -5 1260 -6
1260 -23 100 c-30 134 -64 233 -113 330 -53 105 -94 160 -178 238 -152 140
-349 195 -603 168 -477 -52 -748 -335 -844 -882 -14 -83 -17 -234 -20 -1287
l-4 -1192 -672 2 -672 3 -3 2243 -2 2242 635 0 635 0 0 -320 c0 -176 4 -320 8
-320 5 0 30 31 56 70 103 150 326 327 545 432 194 93 452 165 671 187 123 12
308 13 456 1z m-3898 -2292 l-3 -2243 -672 -3 -673 -2 0 2245 0 2245 675 0
675 0 -2 -2242z"/>
<path d="M5941 14319 c-317 -41 -591 -287 -671 -603 -27 -107 -27 -284 -1
-388 78 -303 329 -543 625 -597 83 -15 248 -13 328 4 403 85 683 480 628 885
-50 369 -335 654 -700 699 -94 12 -117 12 -209 0z"/>
<path d="M420 10830 l0 -3360 2020 0 2020 0 0 670 0 670 -1347 2 -1348 3 -3
2688 -2 2687 -670 0 -670 0 0 -3360z"/>
<path d="M12990 10830 l0 -3360 670 0 670 0 0 1115 c0 613 3 1115 8 1115 4 0
378 -502 832 -1115 l825 -1115 794 0 c633 0 791 3 783 13 -5 6 -418 539 -917
1182 -499 644 -923 1188 -941 1211 l-33 41 889 1007 c489 553 892 1011 895
1016 4 7 -265 10 -777 9 l-783 0 -780 -893 c-429 -491 -783 -891 -787 -889 -5
2 -8 908 -8 2014 l0 2009 -670 0 -670 0 0 -3360z"/>
<path d="M26010 12805 c0 -762 -3 -1385 -7 -1385 -4 0 -50 43 -102 95 -270
268 -613 421 -1066 475 -148 18 -447 16 -590 -4 -927 -131 -1612 -812 -1789
-1780 -70 -377 -57 -812 33 -1181 196 -796 738 -1361 1490 -1550 221 -56 482
-76 741 -56 566 43 967 197 1271 489 53 50 99 92 103 92 3 0 6 -119 6 -265 l0
-265 625 0 625 0 0 3360 0 3360 -670 0 -670 0 0 -1385z m-853 -1830 c499 -97
816 -428 920 -960 24 -125 24 -453 0 -580 -33 -174 -83 -317 -154 -440 -171
-296 -420 -476 -765 -552 -125 -27 -448 -25 -574 4 -482 113 -795 464 -890
998 -24 137 -24 412 0 550 33 187 101 367 190 504 56 87 190 229 271 286 149
106 344 180 545 205 95 13 362 4 457 -15z"/>
<path d="M10203 11999 c-400 -28 -809 -187 -1086 -423 -81 -70 -174 -175 -209
-238 -12 -21 -25 -38 -30 -38 -4 0 -8 146 -8 325 l0 325 -635 0 -635 0 0
-2240 0 -2240 675 0 674 0 4 1198 c3 1170 4 1199 24 1292 62 283 146 454 298
606 125 126 250 196 433 241 97 25 363 25 452 0 119 -33 208 -84 296 -172 146
-144 220 -312 270 -607 16 -93 18 -221 21 -1330 l4 -1228 670 0 670 0 -4 1423
c-4 1530 -3 1509 -57 1787 -140 718 -499 1122 -1125 1268 -194 45 -482 66
-702 51z"/>
<path d="M19625 12000 c-1029 -57 -1745 -547 -2019 -1380 -77 -234 -112 -441
-122 -724 -18 -458 74 -928 255 -1301 317 -655 892 -1052 1681 -1162 172 -24
595 -23 805 1 578 67 1050 251 1387 540 72 62 199 199 198 214 -1 6 -716 588
-804 654 -23 18 -24 18 -147 -105 -214 -212 -444 -337 -739 -402 -101 -22
-393 -31 -502 -15 -266 39 -494 173 -651 385 -116 156 -203 369 -214 521 l-6
84 1599 2 1599 3 8 55 c5 30 9 154 9 275 2 916 -317 1631 -902 2022 -378 252
-863 365 -1435 333z m332 -906 c265 -55 475 -218 606 -470 62 -120 97 -245
104 -366 l6 -98 -962 0 c-909 0 -961 1 -961 18 0 9 9 58 19 107 87 419 405
735 816 809 109 19 278 20 372 0z"/>
<path d="M5360 9710 l0 -2240 670 0 670 0 0 2240 0 2240 -670 0 -670 0 0
-2240z"/>
</g>
</svg>
