<?xml version="1.0" standalone="no"?>
<!DOCTYPE svg PUBLIC "-//W3C//DTD SVG 20010904//EN"
 "http://www.w3.org/TR/2001/REC-SVG-20010904/DTD/svg10.dtd">
<svg version="1.0" xmlns="http://www.w3.org/2000/svg"
 width="700.000000pt" height="700.000000pt" viewBox="0 0 700.000000 700.000000"
 preserveAspectRatio="xMidYMid meet">

<g transform="translate(0.000000,700.000000) scale(0.100000,-0.100000)"
fill="#000000" stroke="none">
<path d="M1723 6350 c-161 -23 -352 -123 -455 -241 -143 -161 -205 -334 -195
-544 6 -127 28 -210 90 -330 58 -112 190 -244 302 -302 136 -70 210 -88 360
-88 151 1 218 15 341 76 257 126 416 383 417 674 0 136 -19 217 -81 345 -39
82 -59 108 -141 191 -82 81 -110 102 -191 142 -143 70 -301 97 -447 77z"/>
<path d="M5060 6349 c-164 -25 -299 -96 -425 -223 -76 -76 -99 -107 -138 -186
-61 -124 -80 -207 -80 -345 0 -289 160 -548 417 -674 122 -61 189 -76 341 -76
150 0 224 18 360 88 112 58 244 190 302 302 70 136 88 210 88 360 0 151 -15
217 -75 340 -140 288 -472 462 -790 414z"/>
<path d="M3308 5831 c-261 -71 -459 -262 -540 -521 -20 -65 -23 -95 -23 -220
1 -132 3 -152 29 -225 84 -243 264 -421 501 -495 108 -34 285 -39 395 -11 277
69 491 278 561 550 28 105 27 268 -1 375 -69 268 -280 478 -547 547 -101 25
-280 25 -375 0z"/>
<path d="M1505 4714 c-303 -53 -566 -227 -735 -485 -67 -101 -111 -204 -148
-338 l-26 -96 -4 -813 -3 -812 758 2 758 3 6 595 c6 650 4 630 69 798 126 325
404 577 735 665 l87 23 -43 55 c-174 220 -435 370 -713 408 -115 16 -642 13
-741 -5z"/>
<path d="M4745 4719 c-270 -39 -535 -193 -704 -408 l-43 -55 87 -23 c334 -89
616 -346 740 -677 59 -158 58 -143 64 -786 l6 -595 758 -3 758 -2 -3 812 -4
813 -26 96 c-57 211 -153 377 -297 519 -126 124 -245 199 -411 258 -150 53
-239 62 -569 61 -163 -1 -323 -5 -356 -10z"/>
<path d="M3100 4183 c-418 -74 -764 -396 -870 -809 -35 -134 -41 -304 -38
-1034 l3 -695 1303 -3 1302 -2 0 752 c0 488 -4 785 -11 843 -30 243 -138 464
-312 639 -167 168 -371 274 -602 311 -126 21 -655 19 -775 -2z"/>
</g>
</svg>
